<svg width="204" height="43" viewBox="0 0 204 43" fill="none" xmlns="http://www.w3.org/2000/svg">
<rect x="188" y="40" width="12.1333" height="12.1333" rx="5" transform="rotate(-180 188 40)" fill="#FD797A"/>
<rect x="204" y="40" width="12.1333" height="12.1333" rx="5" transform="rotate(-180 204 40)" fill="#FD797A"/>
<rect x="204" y="24" width="12.1333" height="12.1333" rx="5" transform="rotate(-180 204 24)" fill="#FD797A"/>
<rect x="189" y="24" width="18" height="18" rx="6" transform="rotate(-180 189 24)" fill="#5E57BA"/>
<path d="M92.3717 19C91.4383 19 90.685 18.76 90.1117 18.28C89.5383 17.7867 89.2517 17.0733 89.2517 16.14V15.12C89.2517 14.7467 89.285 14.4333 89.3517 14.18C89.4183 13.9267 89.545 13.72 89.7317 13.56H89.2717C88.6317 13.56 88.1583 13.6933 87.8517 13.96C87.545 14.2267 87.3917 14.6133 87.3917 15.12V23.84H85.3517V15.04C85.3517 14.5733 85.4317 14.1267 85.5917 13.7C85.765 13.26 86.0117 12.8733 86.3317 12.54C86.6517 12.2067 87.0517 11.94 87.5317 11.74C88.0117 11.54 88.5717 11.44 89.2117 11.44H92.8317C93.3917 11.44 93.8583 11.52 94.2317 11.68C94.6183 11.8267 94.9317 12.0333 95.1717 12.3C95.4117 12.5533 95.5783 12.8533 95.6717 13.2C95.7783 13.5467 95.8317 13.9133 95.8317 14.3V16.06C95.8317 16.58 95.7383 17.0267 95.5517 17.4C95.3783 17.76 95.1317 18.06 94.8117 18.3C94.505 18.54 94.1383 18.72 93.7117 18.84C93.2983 18.9467 92.8517 19 92.3717 19ZM92.5317 16.8C92.9983 16.8 93.3383 16.7 93.5517 16.5C93.7783 16.3 93.8917 16.0267 93.8917 15.68V14.82C93.8917 14.4733 93.7983 14.1933 93.6117 13.98C93.4383 13.7533 93.145 13.64 92.7317 13.64H92.3117C91.925 13.64 91.6383 13.7533 91.4517 13.98C91.2783 14.2067 91.1917 14.4933 91.1917 14.84V15.64C91.1917 16 91.2917 16.2867 91.4917 16.5C91.705 16.7 92.0517 16.8 92.5317 16.8ZM100.59 18.68C100.59 19.4 100.47 20.0733 100.23 20.7C99.9898 21.3267 99.6565 21.8733 99.2298 22.34C98.8165 22.8067 98.3165 23.1733 97.7298 23.44C97.1565 23.7067 96.5298 23.84 95.8498 23.84H94.5898L94.4898 21.66H95.3298C95.9298 21.66 96.4431 21.5733 96.8698 21.4C97.2831 21.24 97.6231 21.02 97.8898 20.74C98.1565 20.46 98.3498 20.14 98.4698 19.78C98.5898 19.42 98.6498 19.0533 98.6498 18.68V13.14H100.69V15.52C100.69 15.9467 100.816 16.2667 101.07 16.48C101.336 16.6933 101.67 16.8 102.07 16.8H102.29C102.583 16.8 102.73 17.1533 102.73 17.86C102.73 18.62 102.583 19 102.29 19H102.07C101.803 19 101.536 18.96 101.27 18.88C101.003 18.7867 100.776 18.6067 100.59 18.34V18.68ZM105.14 16.8C104.674 16.3733 104.34 15.9533 104.14 15.54C103.94 15.1133 103.84 14.6533 103.84 14.16C103.84 13.72 103.92 13.2933 104.08 12.88C104.254 12.4667 104.494 12.1067 104.8 11.8C105.12 11.48 105.5 11.2267 105.94 11.04C106.394 10.84 106.894 10.74 107.44 10.74C107.987 10.74 108.467 10.84 108.88 11.04C109.294 11.24 109.634 11.5 109.9 11.82C110.18 12.14 110.387 12.5 110.52 12.9C110.667 13.2867 110.74 13.6733 110.74 14.06C110.74 14.6467 110.634 15.16 110.42 15.6C110.22 16.0267 109.927 16.4267 109.54 16.8H112.32C112.614 16.8 112.76 17.1533 112.76 17.86C112.76 18.62 112.614 19 112.32 19H110.3C109.7 19 109.154 18.9733 108.66 18.92C108.18 18.8667 107.807 18.7667 107.54 18.62C107.354 18.7133 107.12 18.7867 106.84 18.84C106.574 18.8933 106.294 18.9333 106 18.96C105.72 18.9733 105.44 18.9867 105.16 19C104.894 19 104.667 19 104.48 19H102.28C102.107 19 101.994 18.9133 101.94 18.74C101.874 18.5533 101.84 18.2867 101.84 17.94C101.84 17.5533 101.874 17.2667 101.94 17.08C101.994 16.8933 102.107 16.8 102.28 16.8H105.14ZM107.3 12.96C106.86 12.96 106.5 13.1067 106.22 13.4C105.94 13.6933 105.8 14.06 105.8 14.5C105.8 14.9267 105.954 15.3133 106.26 15.66C106.58 15.9933 106.96 16.2733 107.4 16.5C107.787 16.2733 108.114 15.9933 108.38 15.66C108.66 15.3267 108.8 14.9467 108.8 14.52C108.8 14.0533 108.66 13.68 108.38 13.4C108.114 13.1067 107.754 12.96 107.3 12.96ZM108.52 9.18H106.26V7.14H108.52V9.18ZM115.619 16.8C115.793 16.8 115.906 16.8933 115.959 17.08C116.026 17.2533 116.059 17.5133 116.059 17.86C116.059 18.2467 116.026 18.5333 115.959 18.72C115.906 18.9067 115.793 19 115.619 19H112.319C112.146 19 112.033 18.9133 111.979 18.74C111.913 18.5533 111.879 18.2867 111.879 17.94C111.879 17.5533 111.913 17.2667 111.979 17.08C112.033 16.8933 112.146 16.8 112.319 16.8H115.619ZM118.92 16.8C119.094 16.8 119.207 16.8933 119.26 17.08C119.327 17.2533 119.36 17.5133 119.36 17.86C119.36 18.2467 119.327 18.5333 119.26 18.72C119.207 18.9067 119.094 19 118.92 19H115.62C115.447 19 115.334 18.9133 115.28 18.74C115.214 18.5533 115.18 18.2867 115.18 17.94C115.18 17.5533 115.214 17.2667 115.28 17.08C115.334 16.8933 115.447 16.8 115.62 16.8H118.92ZM122.221 16.8C122.394 16.8 122.508 16.8933 122.561 17.08C122.628 17.2533 122.661 17.5133 122.661 17.86C122.661 18.2467 122.628 18.5333 122.561 18.72C122.508 18.9067 122.394 19 122.221 19H118.921C118.748 19 118.634 18.9133 118.581 18.74C118.514 18.5533 118.481 18.2867 118.481 17.94C118.481 17.5533 118.514 17.2667 118.581 17.08C118.634 16.8933 118.748 16.8 118.921 16.8H122.221ZM125.522 16.8C125.695 16.8 125.808 16.8933 125.862 17.08C125.928 17.2533 125.962 17.5133 125.962 17.86C125.962 18.2467 125.928 18.5333 125.862 18.72C125.808 18.9067 125.695 19 125.522 19H122.222C122.048 19 121.935 18.9133 121.882 18.74C121.815 18.5533 121.782 18.2867 121.782 17.94C121.782 17.5533 121.815 17.2667 121.882 17.08C121.935 16.8933 122.048 16.8 122.222 16.8H125.522ZM128.823 16.8C128.996 16.8 129.109 16.8933 129.163 17.08C129.229 17.2533 129.263 17.5133 129.263 17.86C129.263 18.2467 129.229 18.5333 129.163 18.72C129.109 18.9067 128.996 19 128.823 19H125.523C125.349 19 125.236 18.9133 125.183 18.74C125.116 18.5533 125.083 18.2867 125.083 17.94C125.083 17.5533 125.116 17.2667 125.183 17.08C125.236 16.8933 125.349 16.8 125.523 16.8H128.823ZM132.123 16.8C132.297 16.8 132.41 16.8933 132.463 17.08C132.53 17.2533 132.563 17.5133 132.563 17.86C132.563 18.2467 132.53 18.5333 132.463 18.72C132.41 18.9067 132.297 19 132.123 19H128.823C128.65 19 128.537 18.9133 128.483 18.74C128.417 18.5533 128.383 18.2867 128.383 17.94C128.383 17.5533 128.417 17.2667 128.483 17.08C128.537 16.8933 128.65 16.8 128.823 16.8H132.123ZM135.424 16.8C135.598 16.8 135.711 16.8933 135.764 17.08C135.831 17.2533 135.864 17.5133 135.864 17.86C135.864 18.2467 135.831 18.5333 135.764 18.72C135.711 18.9067 135.598 19 135.424 19H132.124C131.951 19 131.838 18.9133 131.784 18.74C131.718 18.5533 131.684 18.2867 131.684 17.94C131.684 17.5533 131.718 17.2667 131.784 17.08C131.838 16.8933 131.951 16.8 132.124 16.8H135.424ZM138.725 16.8C138.898 16.8 139.012 16.8933 139.065 17.08C139.132 17.2533 139.165 17.5133 139.165 17.86C139.165 18.2467 139.132 18.5333 139.065 18.72C139.012 18.9067 138.898 19 138.725 19H135.425C135.252 19 135.138 18.9133 135.085 18.74C135.018 18.5533 134.985 18.2867 134.985 17.94C134.985 17.5533 135.018 17.2667 135.085 17.08C135.138 16.8933 135.252 16.8 135.425 16.8H138.725ZM140.126 16.8C141.019 16.8 141.466 16.3667 141.466 15.5V13.14H143.526V15.5C143.526 15.9667 143.666 16.3 143.946 16.5C144.239 16.7 144.579 16.8 144.966 16.8H145.486C145.792 16.8 145.946 17.1533 145.946 17.86C145.946 18.62 145.792 19 145.486 19H144.906C144.399 19 143.939 18.92 143.526 18.76C143.112 18.5867 142.752 18.2467 142.446 17.74C142.112 18.2467 141.752 18.5867 141.366 18.76C140.979 18.92 140.566 19 140.126 19H138.726C138.552 19 138.439 18.9133 138.386 18.74C138.319 18.5533 138.286 18.2867 138.286 17.94C138.286 17.5533 138.319 17.2667 138.386 17.08C138.439 16.8933 138.552 16.8 138.726 16.8H140.126ZM144.706 10.8H142.626V8.84H144.706V10.8ZM141.846 10.8H139.766V8.84H141.846V10.8ZM145.944 16.8C146.85 16.8 147.304 16.3667 147.304 15.5V6.6H149.344V15.5C149.344 15.9667 149.484 16.3 149.764 16.5C150.057 16.7 150.404 16.8 150.804 16.8H151.124C151.417 16.8 151.564 17.1533 151.564 17.86C151.564 18.62 151.417 19 151.124 19H150.724C150.23 19 149.77 18.92 149.344 18.76C148.917 18.5867 148.55 18.2467 148.244 17.74C147.937 18.2467 147.584 18.5867 147.184 18.76C146.797 18.92 146.384 19 145.944 19H145.484C145.31 19 145.197 18.9133 145.144 18.74C145.077 18.5533 145.044 18.2867 145.044 17.94C145.044 17.5533 145.077 17.2667 145.144 17.08C145.197 16.8933 145.31 16.8 145.484 16.8H145.944ZM152.968 16.8C153.861 16.8 154.308 16.3667 154.308 15.5V13.14H156.348V15.64C156.348 16.7467 156.068 17.5867 155.508 18.16C154.948 18.72 154.161 19 153.148 19H151.128C150.955 19 150.841 18.9133 150.788 18.74C150.721 18.5533 150.688 18.2867 150.688 17.94C150.688 17.5533 150.721 17.2667 150.788 17.08C150.841 16.8933 150.955 16.8 151.128 16.8H152.968ZM154.688 26H152.568V24.04H154.688V26ZM156.088 23.2H154.008V21.24H156.088V23.2ZM153.228 23.2H151.148V21.24H153.228V23.2Z" fill="black"/>
<path d="M91.4165 37C91.2565 37 91.0965 36.97 90.9365 36.91C90.7832 36.85 90.6532 36.7467 90.5465 36.6V36.82C90.5465 37.1733 90.4898 37.5067 90.3765 37.82C90.2632 38.1333 90.0998 38.4067 89.8865 38.64C89.6798 38.88 89.4265 39.07 89.1265 39.21C88.8265 39.35 88.4865 39.42 88.1065 39.42H87.5165C86.7698 39.42 86.1898 39.19 85.7765 38.73C85.3632 38.27 85.1565 37.64 85.1565 36.84V35.09H85.7965V36.82C85.7965 37.1067 85.8298 37.3667 85.8965 37.6C85.9698 37.8333 86.0798 38.0333 86.2265 38.2C86.3798 38.3733 86.5698 38.5067 86.7965 38.6C87.0232 38.6933 87.2965 38.74 87.6165 38.74H88.0565C88.3698 38.74 88.6432 38.6867 88.8765 38.58C89.1098 38.48 89.3032 38.3433 89.4565 38.17C89.6165 37.9967 89.7332 37.7933 89.8065 37.56C89.8865 37.3267 89.9265 37.0833 89.9265 36.83V34.14H90.5665V35.55C90.5665 35.7833 90.6432 35.97 90.7965 36.11C90.9565 36.2433 91.1632 36.31 91.4165 36.31H91.5265C91.6732 36.31 91.7465 36.4233 91.7465 36.65C91.7465 36.8833 91.6732 37 91.5265 37H91.4165ZM88.1565 33.92H87.3165V33.19H88.1565V33.92ZM92.4313 36.31C92.6913 36.31 92.8979 36.24 93.0513 36.1C93.2113 35.96 93.2913 35.7667 93.2913 35.52V34.14H93.9413V35.52C93.9413 35.9933 93.8079 36.36 93.5413 36.62C93.2813 36.8733 92.9246 37 92.4713 37H91.5312C91.4446 37 91.3879 36.9733 91.3612 36.92C91.3279 36.8667 91.3112 36.7833 91.3112 36.67C91.3112 36.55 91.3279 36.46 91.3612 36.4C91.3879 36.34 91.4446 36.31 91.5312 36.31H92.4313ZM93.6713 38.87H92.9113V38.16H93.6713V38.87ZM92.3713 38.87H91.6013V38.16H92.3713V38.87ZM95.19 37V30.8H95.84V36.31H97.16C97.44 36.31 97.6533 36.24 97.8 36.1C97.9533 35.96 98.03 35.7667 98.03 35.52V30.8H98.68V35.52C98.68 35.8133 98.7667 36.02 98.94 36.14C99.12 36.2533 99.32 36.31 99.54 36.31H99.67C99.8167 36.31 99.89 36.4233 99.89 36.65C99.89 36.8833 99.8167 37 99.67 37H99.52C99.2667 37 99.0367 36.9567 98.83 36.87C98.6233 36.7767 98.4533 36.6033 98.32 36.35C98.1733 36.6033 97.9967 36.7767 97.79 36.87C97.59 36.9567 97.38 37 97.16 37H95.19ZM100.566 36.31C100.826 36.31 101.033 36.24 101.186 36.1C101.346 35.96 101.426 35.7667 101.426 35.52V34.14H102.076V35.52C102.076 35.9933 101.943 36.36 101.676 36.62C101.416 36.8733 101.059 37 100.606 37H99.666C99.5793 37 99.5227 36.9733 99.496 36.92C99.4627 36.8667 99.446 36.7833 99.446 36.67C99.446 36.55 99.4627 36.46 99.496 36.4C99.5227 36.34 99.5793 36.31 99.666 36.31H100.566ZM101.806 32.86H100.966V32.13H101.806V32.86ZM104.028 32.17H104.678V37H104.028V32.17ZM103.868 31.08C103.741 31.08 103.638 31.0933 103.558 31.12C103.485 31.14 103.421 31.2167 103.368 31.35L103.158 31.8L102.728 31.61L102.988 31.03C103.048 30.91 103.105 30.8133 103.158 30.74C103.211 30.6667 103.271 30.61 103.338 30.57C103.398 30.53 103.468 30.5033 103.548 30.49C103.635 30.4767 103.735 30.47 103.848 30.47H105.688L105.658 31.08H103.868ZM115.312 35.52C115.312 35.8133 115.395 36.02 115.562 36.14C115.729 36.2533 115.915 36.31 116.122 36.31C116.375 36.31 116.575 36.24 116.722 36.1C116.875 35.96 116.952 35.7667 116.952 35.52V34.14H117.602V35.52C117.602 35.9933 117.469 36.36 117.202 36.62C116.942 36.8733 116.589 37 116.142 37C115.902 37 115.679 36.9567 115.472 36.87C115.265 36.7767 115.095 36.6033 114.962 36.35C114.809 36.6033 114.622 36.7767 114.402 36.87C114.189 36.9567 113.965 37 113.732 37C113.519 37 113.335 36.9667 113.182 36.9C113.029 36.8267 112.905 36.73 112.812 36.61V36.84C112.812 37.18 112.755 37.5067 112.642 37.82C112.529 38.1333 112.365 38.4067 112.152 38.64C111.945 38.88 111.692 39.07 111.392 39.21C111.092 39.35 110.752 39.42 110.372 39.42H109.782C109.035 39.42 108.455 39.19 108.042 38.73C107.629 38.27 107.422 37.64 107.422 36.84V35.09H108.062V36.82C108.062 37.1067 108.095 37.3667 108.162 37.6C108.235 37.8333 108.345 38.0333 108.492 38.2C108.645 38.3733 108.835 38.5067 109.062 38.6C109.289 38.6933 109.562 38.74 109.882 38.74H110.322C110.635 38.74 110.909 38.6867 111.142 38.58C111.375 38.48 111.569 38.3433 111.722 38.17C111.882 37.9967 111.999 37.7933 112.072 37.56C112.152 37.3267 112.192 37.0833 112.192 36.83V34.14H112.832V35.55C112.832 35.7833 112.912 35.97 113.072 36.11C113.232 36.2433 113.449 36.31 113.722 36.31C114.029 36.31 114.262 36.24 114.422 36.1C114.589 35.96 114.672 35.7667 114.672 35.52V34.14H115.312V35.52ZM115.392 31.66H114.592V30.96H115.392V31.66ZM116.022 32.86H115.222V32.15H116.022V32.86ZM114.752 32.86H113.952V32.15H114.752V32.86ZM119.842 36.84C119.842 37.2267 119.779 37.5767 119.652 37.89C119.532 38.21 119.365 38.4833 119.152 38.71C118.939 38.9367 118.685 39.11 118.392 39.23C118.105 39.3567 117.792 39.42 117.452 39.42H116.862L116.812 38.74H117.302C117.635 38.74 117.922 38.6867 118.162 38.58C118.402 38.4733 118.599 38.33 118.752 38.15C118.905 37.9767 119.019 37.7767 119.092 37.55C119.165 37.3233 119.202 37.0867 119.202 36.84V34.14H119.842V36.84ZM119.882 32.86H119.042V32.13H119.882V32.86ZM121.868 38.74C122.162 38.74 122.418 38.6933 122.638 38.6C122.865 38.5067 123.055 38.38 123.208 38.22C123.362 38.06 123.478 37.8733 123.558 37.66C123.638 37.4533 123.685 37.2333 123.698 37H122.698C122.358 37 122.078 36.9633 121.858 36.89C121.638 36.8167 121.465 36.71 121.338 36.57C121.212 36.43 121.122 36.2633 121.068 36.07C121.022 35.87 120.998 35.6467 120.998 35.4C120.998 35.1467 121.035 34.9067 121.108 34.68C121.182 34.4533 121.288 34.2533 121.428 34.08C121.568 33.9067 121.742 33.77 121.948 33.67C122.162 33.5633 122.405 33.51 122.678 33.51C122.898 33.51 123.108 33.5467 123.308 33.62C123.508 33.6933 123.685 33.81 123.838 33.97C123.992 34.1233 124.112 34.3267 124.198 34.58C124.292 34.8267 124.338 35.1267 124.338 35.48V36.31H125.298C125.378 36.31 125.432 36.34 125.458 36.4C125.492 36.4533 125.508 36.5367 125.508 36.65C125.508 36.77 125.492 36.86 125.458 36.92C125.432 36.9733 125.378 37 125.298 37H124.318C124.305 37.3267 124.238 37.6367 124.118 37.93C124.005 38.2233 123.845 38.48 123.638 38.7C123.432 38.92 123.185 39.0933 122.898 39.22C122.612 39.3533 122.288 39.42 121.928 39.42H120.868L120.808 38.74H121.868ZM121.618 35.36C121.618 35.5267 121.635 35.67 121.668 35.79C121.708 35.91 121.772 36.01 121.858 36.09C121.952 36.1633 122.075 36.22 122.228 36.26C122.382 36.2933 122.575 36.31 122.808 36.31H123.708V35.56C123.708 35.0667 123.612 34.7133 123.418 34.5C123.225 34.2867 122.958 34.18 122.618 34.18C122.298 34.18 122.052 34.2867 121.878 34.5C121.705 34.7133 121.618 35 121.618 35.36ZM125.461 36.31C125.721 36.31 125.917 36.2467 126.051 36.12C126.184 35.9933 126.251 35.8233 126.251 35.61V35.23C126.251 34.65 126.397 34.1967 126.691 33.87C126.991 33.5433 127.404 33.38 127.931 33.38C128.204 33.38 128.444 33.4233 128.651 33.51C128.857 33.5967 129.027 33.72 129.161 33.88C129.301 34.04 129.404 34.23 129.471 34.45C129.537 34.67 129.571 34.9133 129.571 35.18C129.571 35.7533 129.421 36.2 129.121 36.52C128.821 36.84 128.411 37 127.891 37C127.624 37 127.367 36.95 127.121 36.85C126.874 36.7433 126.681 36.5567 126.541 36.29C126.481 36.4433 126.407 36.5667 126.321 36.66C126.234 36.7533 126.144 36.8267 126.051 36.88C125.957 36.9267 125.857 36.96 125.751 36.98C125.651 36.9933 125.554 37 125.461 37H125.301C125.214 37 125.157 36.9733 125.131 36.92C125.097 36.8667 125.081 36.7833 125.081 36.67C125.081 36.55 125.097 36.46 125.131 36.4C125.157 36.34 125.214 36.31 125.301 36.31H125.461ZM128.931 35.24C128.931 34.8933 128.854 34.6133 128.701 34.4C128.547 34.18 128.284 34.07 127.911 34.07C127.217 34.07 126.871 34.4733 126.871 35.28C126.871 35.62 126.964 35.8767 127.151 36.05C127.344 36.2233 127.591 36.31 127.891 36.31C128.231 36.31 128.487 36.2167 128.661 36.03C128.841 35.8433 128.931 35.58 128.931 35.24ZM130.825 32.17H131.475V37H130.825V32.17ZM130.665 31.08C130.538 31.08 130.435 31.0933 130.355 31.12C130.281 31.14 130.218 31.2167 130.165 31.35L129.955 31.8L129.525 31.61L129.785 31.03C129.845 30.91 129.901 30.8133 129.955 30.74C130.008 30.6667 130.068 30.61 130.135 30.57C130.195 30.53 130.265 30.5033 130.345 30.49C130.431 30.4767 130.531 30.47 130.645 30.47H132.485L132.455 31.08H130.665ZM137.759 37C137.299 37 136.929 36.88 136.649 36.64C136.369 36.3933 136.229 36.0367 136.229 35.57V34.96C136.229 34.7467 136.256 34.5633 136.309 34.41C136.362 34.2567 136.459 34.1167 136.599 33.99H136.179C135.759 33.99 135.442 34.0967 135.229 34.31C135.016 34.5167 134.909 34.7867 134.909 35.12V39.42H134.269V35.1C134.269 34.8667 134.309 34.6433 134.389 34.43C134.476 34.2167 134.599 34.0267 134.759 33.86C134.919 33.6933 135.119 33.5633 135.359 33.47C135.599 33.37 135.879 33.32 136.199 33.32H138.009C138.276 33.32 138.499 33.36 138.679 33.44C138.866 33.5133 139.016 33.6133 139.129 33.74C139.242 33.8667 139.322 34.0133 139.369 34.18C139.422 34.34 139.449 34.5033 139.449 34.67V35.55C139.449 35.8033 139.406 36.0233 139.319 36.21C139.232 36.39 139.112 36.54 138.959 36.66C138.812 36.7733 138.636 36.86 138.429 36.92C138.222 36.9733 137.999 37 137.759 37ZM137.829 36.31C138.136 36.31 138.376 36.2433 138.549 36.11C138.729 35.97 138.819 35.76 138.819 35.48V34.82C138.819 34.6 138.756 34.41 138.629 34.25C138.502 34.09 138.299 34.01 138.019 34.01H137.659C137.379 34.01 137.176 34.0933 137.049 34.26C136.922 34.42 136.859 34.62 136.859 34.86V35.45C136.859 35.73 136.939 35.9433 137.099 36.09C137.266 36.2367 137.509 36.31 137.829 36.31ZM141.668 36.84C141.668 37.2267 141.608 37.5767 141.488 37.89C141.368 38.21 141.201 38.4833 140.988 38.71C140.774 38.9367 140.524 39.11 140.238 39.23C139.951 39.3567 139.638 39.42 139.298 39.42H138.708L138.658 38.74H139.148C139.481 38.74 139.768 38.6867 140.008 38.58C140.248 38.4733 140.444 38.33 140.598 38.15C140.751 37.9767 140.864 37.7767 140.938 37.55C141.011 37.3233 141.048 37.0867 141.048 36.84V34.14H141.688V35.55C141.688 35.7833 141.764 35.97 141.918 36.11C142.078 36.2433 142.284 36.31 142.538 36.31H142.648C142.794 36.31 142.868 36.4233 142.868 36.65C142.868 36.8833 142.794 37 142.648 37H142.538C142.378 37 142.218 36.97 142.058 36.91C141.904 36.85 141.774 36.7467 141.668 36.6V36.84ZM144.565 36.31C144.245 36.1233 143.991 35.9 143.805 35.64C143.618 35.3733 143.525 35.0767 143.525 34.75C143.525 34.53 143.565 34.3167 143.645 34.11C143.731 33.9033 143.851 33.7233 144.005 33.57C144.158 33.41 144.345 33.2833 144.565 33.19C144.791 33.09 145.041 33.04 145.315 33.04C145.588 33.04 145.828 33.09 146.035 33.19C146.241 33.2833 146.411 33.41 146.545 33.57C146.685 33.7233 146.788 33.9 146.855 34.1C146.928 34.2933 146.965 34.49 146.965 34.69C146.965 35.35 146.651 35.89 146.025 36.31H147.855C148.001 36.31 148.075 36.4233 148.075 36.65C148.075 36.8833 148.001 37 147.855 37H146.745C146.438 37 146.165 36.9933 145.925 36.98C145.685 36.96 145.498 36.9167 145.365 36.85C145.271 36.89 145.155 36.92 145.015 36.94C144.881 36.96 144.741 36.9767 144.595 36.99C144.455 36.9967 144.315 37 144.175 37C144.041 37 143.928 37 143.835 37H142.645C142.558 37 142.501 36.9733 142.475 36.92C142.441 36.8667 142.425 36.7833 142.425 36.67C142.425 36.55 142.441 36.46 142.475 36.4C142.501 36.34 142.558 36.31 142.645 36.31H144.565ZM145.245 33.73C144.911 33.73 144.648 33.8367 144.455 34.05C144.261 34.2633 144.165 34.5233 144.165 34.83C144.165 35.0033 144.201 35.16 144.275 35.3C144.348 35.44 144.438 35.5667 144.545 35.68C144.658 35.7933 144.781 35.8933 144.915 35.98C145.055 36.06 145.191 36.13 145.325 36.19C145.431 36.13 145.541 36.06 145.655 35.98C145.775 35.8933 145.885 35.7967 145.985 35.69C146.085 35.5767 146.168 35.45 146.235 35.31C146.301 35.17 146.335 35.02 146.335 34.86C146.335 34.52 146.238 34.2467 146.045 34.04C145.851 33.8333 145.585 33.73 145.245 33.73ZM145.745 32.07H144.905V31.34H145.745V32.07ZM148.619 36.31C148.899 36.31 149.113 36.24 149.259 36.1C149.406 35.96 149.479 35.7667 149.479 35.52V34.14H150.129V35.52C150.129 35.6667 150.153 35.79 150.199 35.89C150.253 35.99 150.319 36.0733 150.399 36.14C150.479 36.2 150.569 36.2433 150.669 36.27C150.769 36.2967 150.873 36.31 150.979 36.31H151.279C151.433 36.31 151.509 36.4233 151.509 36.65C151.509 36.8833 151.433 37 151.279 37H150.959C150.719 37 150.496 36.9567 150.289 36.87C150.083 36.7767 149.913 36.6033 149.779 36.35C149.626 36.6033 149.449 36.7767 149.249 36.87C149.056 36.9567 148.846 37 148.619 37H147.859C147.773 37 147.716 36.9733 147.689 36.92C147.656 36.8667 147.639 36.7833 147.639 36.67C147.639 36.55 147.656 36.46 147.689 36.4C147.716 36.34 147.773 36.31 147.859 36.31H148.619ZM150.729 32.86H149.929V32.15H150.729V32.86ZM149.459 32.86H148.659V32.15H149.459V32.86ZM151.537 36.31C151.817 36.31 152.027 36.24 152.167 36.1C152.314 35.96 152.387 35.7667 152.387 35.52V30.8H153.037V35.52C153.037 35.6667 153.061 35.79 153.107 35.89C153.161 35.99 153.227 36.0733 153.307 36.14C153.387 36.2 153.477 36.2433 153.577 36.27C153.677 36.2967 153.781 36.31 153.887 36.31H154.027C154.114 36.31 154.171 36.34 154.197 36.4C154.231 36.4533 154.247 36.5367 154.247 36.65C154.247 36.77 154.231 36.86 154.197 36.92C154.171 36.9733 154.114 37 154.027 37H153.867C153.627 37 153.404 36.9567 153.197 36.87C152.991 36.7767 152.821 36.6033 152.687 36.35C152.541 36.6033 152.364 36.7767 152.157 36.87C151.957 36.9567 151.751 37 151.537 37H151.277C151.191 37 151.134 36.9733 151.107 36.92C151.074 36.8667 151.057 36.7833 151.057 36.67C151.057 36.55 151.074 36.46 151.107 36.4C151.134 36.34 151.191 36.31 151.277 36.31H151.537ZM154.931 36.31C155.191 36.31 155.398 36.24 155.551 36.1C155.711 35.96 155.791 35.7667 155.791 35.52V34.14H156.441V35.52C156.441 35.9933 156.308 36.36 156.041 36.62C155.781 36.8733 155.425 37 154.971 37H154.031C153.945 37 153.888 36.9733 153.861 36.92C153.828 36.8667 153.811 36.7833 153.811 36.67C153.811 36.55 153.828 36.46 153.861 36.4C153.888 36.34 153.945 36.31 154.031 36.31H154.931ZM155.581 40.07H154.781V39.36H155.581V40.07ZM156.211 38.87H155.411V38.16H156.211V38.87ZM154.941 38.87H154.141V38.16H154.941V38.87Z" fill="black"/>
</svg>
