<svg width="204" height="55" viewBox="0 0 204 55" fill="none" xmlns="http://www.w3.org/2000/svg">
<rect x="188" y="39" width="12.1333" height="12.1333" rx="5" transform="rotate(-180 188 39)" fill="#FD797A"/>
<rect x="204" y="39" width="12.1333" height="12.1333" rx="5" transform="rotate(-180 204 39)" fill="#FD797A"/>
<rect x="204" y="23" width="12.1333" height="12.1333" rx="5" transform="rotate(-180 204 23)" fill="#FD797A"/>
<rect x="189" y="23" width="18" height="18" rx="6" transform="rotate(-180 189 23)" fill="white"/>
<path d="M92.3716 19C91.4383 19 90.685 18.76 90.1116 18.28C89.5383 17.7867 89.2516 17.0733 89.2516 16.14V15.12C89.2516 14.7467 89.285 14.4333 89.3516 14.18C89.4183 13.9267 89.545 13.72 89.7316 13.56H89.2716C88.6316 13.56 88.1583 13.6933 87.8516 13.96C87.545 14.2267 87.3916 14.6133 87.3916 15.12V23.84H85.3516V15.04C85.3516 14.5733 85.4316 14.1267 85.5916 13.7C85.765 13.26 86.0116 12.8733 86.3316 12.54C86.6516 12.2067 87.0516 11.94 87.5316 11.74C88.0116 11.54 88.5716 11.44 89.2116 11.44H92.8316C93.3916 11.44 93.8583 11.52 94.2316 11.68C94.6183 11.8267 94.9316 12.0333 95.1716 12.3C95.4116 12.5533 95.5783 12.8533 95.6716 13.2C95.7783 13.5467 95.8316 13.9133 95.8316 14.3V16.06C95.8316 16.58 95.7383 17.0267 95.5516 17.4C95.3783 17.76 95.1316 18.06 94.8116 18.3C94.505 18.54 94.1383 18.72 93.7116 18.84C93.2983 18.9467 92.8516 19 92.3716 19ZM92.5316 16.8C92.9983 16.8 93.3383 16.7 93.5516 16.5C93.7783 16.3 93.8916 16.0267 93.8916 15.68V14.82C93.8916 14.4733 93.7983 14.1933 93.6116 13.98C93.4383 13.7533 93.145 13.64 92.7316 13.64H92.3116C91.925 13.64 91.6383 13.7533 91.4516 13.98C91.2783 14.2067 91.1916 14.4933 91.1916 14.84V15.64C91.1916 16 91.2916 16.2867 91.4916 16.5C91.705 16.7 92.0516 16.8 92.5316 16.8ZM100.59 18.68C100.59 19.4 100.47 20.0733 100.23 20.7C99.9898 21.3267 99.6564 21.8733 99.2298 22.34C98.8164 22.8067 98.3164 23.1733 97.7298 23.44C97.1564 23.7067 96.5298 23.84 95.8498 23.84H94.5898L94.4898 21.66H95.3298C95.9298 21.66 96.4431 21.5733 96.8698 21.4C97.2831 21.24 97.6231 21.02 97.8898 20.74C98.1564 20.46 98.3498 20.14 98.4698 19.78C98.5898 19.42 98.6498 19.0533 98.6498 18.68V13.14H100.69V15.52C100.69 15.9467 100.816 16.2667 101.07 16.48C101.336 16.6933 101.67 16.8 102.07 16.8H102.29C102.583 16.8 102.73 17.1533 102.73 17.86C102.73 18.62 102.583 19 102.29 19H102.07C101.803 19 101.536 18.96 101.27 18.88C101.003 18.7867 100.776 18.6067 100.59 18.34V18.68ZM105.14 16.8C104.674 16.3733 104.34 15.9533 104.14 15.54C103.94 15.1133 103.84 14.6533 103.84 14.16C103.84 13.72 103.92 13.2933 104.08 12.88C104.254 12.4667 104.494 12.1067 104.8 11.8C105.12 11.48 105.5 11.2267 105.94 11.04C106.394 10.84 106.894 10.74 107.44 10.74C107.987 10.74 108.467 10.84 108.88 11.04C109.294 11.24 109.634 11.5 109.9 11.82C110.18 12.14 110.387 12.5 110.52 12.9C110.667 13.2867 110.74 13.6733 110.74 14.06C110.74 14.6467 110.634 15.16 110.42 15.6C110.22 16.0267 109.927 16.4267 109.54 16.8H112.32C112.614 16.8 112.76 17.1533 112.76 17.86C112.76 18.62 112.614 19 112.32 19H110.3C109.7 19 109.154 18.9733 108.66 18.92C108.18 18.8667 107.807 18.7667 107.54 18.62C107.354 18.7133 107.12 18.7867 106.84 18.84C106.574 18.8933 106.294 18.9333 106 18.96C105.72 18.9733 105.44 18.9867 105.16 19C104.894 19 104.667 19 104.48 19H102.28C102.107 19 101.994 18.9133 101.94 18.74C101.874 18.5533 101.84 18.2867 101.84 17.94C101.84 17.5533 101.874 17.2667 101.94 17.08C101.994 16.8933 102.107 16.8 102.28 16.8H105.14ZM107.3 12.96C106.86 12.96 106.5 13.1067 106.22 13.4C105.94 13.6933 105.8 14.06 105.8 14.5C105.8 14.9267 105.954 15.3133 106.26 15.66C106.58 15.9933 106.96 16.2733 107.4 16.5C107.787 16.2733 108.114 15.9933 108.38 15.66C108.66 15.3267 108.8 14.9467 108.8 14.52C108.8 14.0533 108.66 13.68 108.38 13.4C108.114 13.1067 107.754 12.96 107.3 12.96ZM108.52 9.18H106.26V7.14H108.52V9.18ZM115.619 16.8C115.793 16.8 115.906 16.8933 115.959 17.08C116.026 17.2533 116.059 17.5133 116.059 17.86C116.059 18.2467 116.026 18.5333 115.959 18.72C115.906 18.9067 115.793 19 115.619 19H112.319C112.146 19 112.033 18.9133 111.979 18.74C111.913 18.5533 111.879 18.2867 111.879 17.94C111.879 17.5533 111.913 17.2667 111.979 17.08C112.033 16.8933 112.146 16.8 112.319 16.8H115.619ZM118.92 16.8C119.094 16.8 119.207 16.8933 119.26 17.08C119.327 17.2533 119.36 17.5133 119.36 17.86C119.36 18.2467 119.327 18.5333 119.26 18.72C119.207 18.9067 119.094 19 118.92 19H115.62C115.447 19 115.334 18.9133 115.28 18.74C115.214 18.5533 115.18 18.2867 115.18 17.94C115.18 17.5533 115.214 17.2667 115.28 17.08C115.334 16.8933 115.447 16.8 115.62 16.8H118.92ZM122.221 16.8C122.394 16.8 122.508 16.8933 122.561 17.08C122.628 17.2533 122.661 17.5133 122.661 17.86C122.661 18.2467 122.628 18.5333 122.561 18.72C122.508 18.9067 122.394 19 122.221 19H118.921C118.748 19 118.634 18.9133 118.581 18.74C118.514 18.5533 118.481 18.2867 118.481 17.94C118.481 17.5533 118.514 17.2667 118.581 17.08C118.634 16.8933 118.748 16.8 118.921 16.8H122.221ZM125.522 16.8C125.695 16.8 125.808 16.8933 125.862 17.08C125.928 17.2533 125.962 17.5133 125.962 17.86C125.962 18.2467 125.928 18.5333 125.862 18.72C125.808 18.9067 125.695 19 125.522 19H122.222C122.048 19 121.935 18.9133 121.882 18.74C121.815 18.5533 121.782 18.2867 121.782 17.94C121.782 17.5533 121.815 17.2667 121.882 17.08C121.935 16.8933 122.048 16.8 122.222 16.8H125.522ZM128.823 16.8C128.996 16.8 129.109 16.8933 129.163 17.08C129.229 17.2533 129.263 17.5133 129.263 17.86C129.263 18.2467 129.229 18.5333 129.163 18.72C129.109 18.9067 128.996 19 128.823 19H125.523C125.349 19 125.236 18.9133 125.183 18.74C125.116 18.5533 125.083 18.2867 125.083 17.94C125.083 17.5533 125.116 17.2667 125.183 17.08C125.236 16.8933 125.349 16.8 125.523 16.8H128.823ZM132.123 16.8C132.297 16.8 132.41 16.8933 132.463 17.08C132.53 17.2533 132.563 17.5133 132.563 17.86C132.563 18.2467 132.53 18.5333 132.463 18.72C132.41 18.9067 132.297 19 132.123 19H128.823C128.65 19 128.537 18.9133 128.483 18.74C128.417 18.5533 128.383 18.2867 128.383 17.94C128.383 17.5533 128.417 17.2667 128.483 17.08C128.537 16.8933 128.65 16.8 128.823 16.8H132.123ZM135.424 16.8C135.597 16.8 135.711 16.8933 135.764 17.08C135.831 17.2533 135.864 17.5133 135.864 17.86C135.864 18.2467 135.831 18.5333 135.764 18.72C135.711 18.9067 135.597 19 135.424 19H132.124C131.951 19 131.837 18.9133 131.784 18.74C131.717 18.5533 131.684 18.2867 131.684 17.94C131.684 17.5533 131.717 17.2667 131.784 17.08C131.837 16.8933 131.951 16.8 132.124 16.8H135.424ZM138.725 16.8C138.898 16.8 139.012 16.8933 139.065 17.08C139.132 17.2533 139.165 17.5133 139.165 17.86C139.165 18.2467 139.132 18.5333 139.065 18.72C139.012 18.9067 138.898 19 138.725 19H135.425C135.252 19 135.138 18.9133 135.085 18.74C135.018 18.5533 134.985 18.2867 134.985 17.94C134.985 17.5533 135.018 17.2667 135.085 17.08C135.138 16.8933 135.252 16.8 135.425 16.8H138.725ZM140.126 16.8C141.019 16.8 141.466 16.3667 141.466 15.5V13.14H143.526V15.5C143.526 15.9667 143.666 16.3 143.946 16.5C144.239 16.7 144.579 16.8 144.966 16.8H145.486C145.792 16.8 145.946 17.1533 145.946 17.86C145.946 18.62 145.792 19 145.486 19H144.906C144.399 19 143.939 18.92 143.526 18.76C143.112 18.5867 142.752 18.2467 142.446 17.74C142.112 18.2467 141.752 18.5867 141.366 18.76C140.979 18.92 140.566 19 140.126 19H138.726C138.552 19 138.439 18.9133 138.386 18.74C138.319 18.5533 138.286 18.2867 138.286 17.94C138.286 17.5533 138.319 17.2667 138.386 17.08C138.439 16.8933 138.552 16.8 138.726 16.8H140.126ZM144.706 10.8H142.626V8.84H144.706V10.8ZM141.846 10.8H139.766V8.84H141.846V10.8ZM145.944 16.8C146.85 16.8 147.304 16.3667 147.304 15.5V6.6H149.344V15.5C149.344 15.9667 149.484 16.3 149.764 16.5C150.057 16.7 150.404 16.8 150.804 16.8H151.124C151.417 16.8 151.564 17.1533 151.564 17.86C151.564 18.62 151.417 19 151.124 19H150.724C150.23 19 149.77 18.92 149.344 18.76C148.917 18.5867 148.55 18.2467 148.244 17.74C147.937 18.2467 147.584 18.5867 147.184 18.76C146.797 18.92 146.384 19 145.944 19H145.484C145.31 19 145.197 18.9133 145.144 18.74C145.077 18.5533 145.044 18.2867 145.044 17.94C145.044 17.5533 145.077 17.2667 145.144 17.08C145.197 16.8933 145.31 16.8 145.484 16.8H145.944ZM152.968 16.8C153.861 16.8 154.308 16.3667 154.308 15.5V13.14H156.348V15.64C156.348 16.7467 156.068 17.5867 155.508 18.16C154.948 18.72 154.161 19 153.148 19H151.128C150.955 19 150.841 18.9133 150.788 18.74C150.721 18.5533 150.688 18.2867 150.688 17.94C150.688 17.5533 150.721 17.2667 150.788 17.08C150.841 16.8933 150.955 16.8 151.128 16.8H152.968ZM154.688 26H152.568V24.04H154.688V26ZM156.088 23.2H154.008V21.24H156.088V23.2ZM153.228 23.2H151.148V21.24H153.228V23.2Z" fill="white"/>
<path d="M91.4165 39.283C91.2565 39.283 91.0965 39.253 90.9365 39.193C90.7832 39.133 90.6532 39.0296 90.5465 38.883V39.103C90.5465 39.4563 90.4898 39.7896 90.3765 40.103C90.2632 40.4163 90.0998 40.6896 89.8865 40.923C89.6798 41.163 89.4265 41.353 89.1265 41.493C88.8265 41.633 88.4865 41.703 88.1065 41.703H87.5165C86.7698 41.703 86.1898 41.473 85.7765 41.013C85.3632 40.553 85.1565 39.923 85.1565 39.123V37.373H85.7965V39.103C85.7965 39.3896 85.8298 39.6496 85.8965 39.883C85.9698 40.1163 86.0798 40.3163 86.2265 40.483C86.3798 40.6563 86.5698 40.7896 86.7965 40.883C87.0232 40.9763 87.2965 41.023 87.6165 41.023H88.0565C88.3698 41.023 88.6432 40.9696 88.8765 40.863C89.1098 40.763 89.3032 40.6263 89.4565 40.453C89.6165 40.2796 89.7332 40.0763 89.8065 39.843C89.8865 39.6096 89.9265 39.3663 89.9265 39.113V36.423H90.5665V37.833C90.5665 38.0663 90.6432 38.253 90.7965 38.393C90.9565 38.5263 91.1632 38.593 91.4165 38.593H91.5265C91.6732 38.593 91.7465 38.7063 91.7465 38.933C91.7465 39.1663 91.6732 39.283 91.5265 39.283H91.4165ZM88.1565 36.203H87.3165V35.473H88.1565V36.203ZM92.4313 38.593C92.6913 38.593 92.8979 38.523 93.0513 38.383C93.2113 38.243 93.2913 38.0496 93.2913 37.803V36.423H93.9413V37.803C93.9413 38.2763 93.8079 38.643 93.5413 38.903C93.2813 39.1563 92.9246 39.283 92.4713 39.283H91.5312C91.4446 39.283 91.3879 39.2563 91.3612 39.203C91.3279 39.1496 91.3112 39.0663 91.3112 38.953C91.3112 38.833 91.3279 38.743 91.3612 38.683C91.3879 38.623 91.4446 38.593 91.5312 38.593H92.4313ZM93.6713 41.153H92.9113V40.443H93.6713V41.153ZM92.3713 41.153H91.6013V40.443H92.3713V41.153ZM95.19 39.283V33.083H95.84V38.593H97.16C97.44 38.593 97.6533 38.523 97.8 38.383C97.9533 38.243 98.03 38.0496 98.03 37.803V33.083H98.68V37.803C98.68 38.0963 98.7667 38.303 98.94 38.423C99.12 38.5363 99.32 38.593 99.54 38.593H99.67C99.8167 38.593 99.89 38.7063 99.89 38.933C99.89 39.1663 99.8167 39.283 99.67 39.283H99.52C99.2667 39.283 99.0367 39.2396 98.83 39.153C98.6233 39.0596 98.4533 38.8863 98.32 38.633C98.1733 38.8863 97.9967 39.0596 97.79 39.153C97.59 39.2396 97.38 39.283 97.16 39.283H95.19ZM100.566 38.593C100.826 38.593 101.033 38.523 101.186 38.383C101.346 38.243 101.426 38.0496 101.426 37.803V36.423H102.076V37.803C102.076 38.2763 101.943 38.643 101.676 38.903C101.416 39.1563 101.059 39.283 100.606 39.283H99.666C99.5793 39.283 99.5227 39.2563 99.496 39.203C99.4627 39.1496 99.446 39.0663 99.446 38.953C99.446 38.833 99.4627 38.743 99.496 38.683C99.5227 38.623 99.5793 38.593 99.666 38.593H100.566ZM101.806 35.143H100.966V34.413H101.806V35.143ZM104.028 34.453H104.678V39.283H104.028V34.453ZM103.868 33.363C103.741 33.363 103.638 33.3763 103.558 33.403C103.485 33.423 103.421 33.4996 103.368 33.633L103.158 34.083L102.728 33.893L102.988 33.313C103.048 33.193 103.105 33.0963 103.158 33.023C103.211 32.9496 103.271 32.893 103.338 32.853C103.398 32.813 103.468 32.7863 103.548 32.773C103.635 32.7596 103.735 32.753 103.848 32.753H105.688L105.658 33.363H103.868ZM115.312 37.803C115.312 38.0963 115.395 38.303 115.562 38.423C115.729 38.5363 115.915 38.593 116.122 38.593C116.375 38.593 116.575 38.523 116.722 38.383C116.875 38.243 116.952 38.0496 116.952 37.803V36.423H117.602V37.803C117.602 38.2763 117.469 38.643 117.202 38.903C116.942 39.1563 116.589 39.283 116.142 39.283C115.902 39.283 115.679 39.2396 115.472 39.153C115.265 39.0596 115.095 38.8863 114.962 38.633C114.809 38.8863 114.622 39.0596 114.402 39.153C114.189 39.2396 113.965 39.283 113.732 39.283C113.519 39.283 113.335 39.2496 113.182 39.183C113.029 39.1096 112.905 39.013 112.812 38.893V39.123C112.812 39.463 112.755 39.7896 112.642 40.103C112.529 40.4163 112.365 40.6896 112.152 40.923C111.945 41.163 111.692 41.353 111.392 41.493C111.092 41.633 110.752 41.703 110.372 41.703H109.782C109.035 41.703 108.455 41.473 108.042 41.013C107.629 40.553 107.422 39.923 107.422 39.123V37.373H108.062V39.103C108.062 39.3896 108.095 39.6496 108.162 39.883C108.235 40.1163 108.345 40.3163 108.492 40.483C108.645 40.6563 108.835 40.7896 109.062 40.883C109.289 40.9763 109.562 41.023 109.882 41.023H110.322C110.635 41.023 110.909 40.9696 111.142 40.863C111.375 40.763 111.569 40.6263 111.722 40.453C111.882 40.2796 111.999 40.0763 112.072 39.843C112.152 39.6096 112.192 39.3663 112.192 39.113V36.423H112.832V37.833C112.832 38.0663 112.912 38.253 113.072 38.393C113.232 38.5263 113.449 38.593 113.722 38.593C114.029 38.593 114.262 38.523 114.422 38.383C114.589 38.243 114.672 38.0496 114.672 37.803V36.423H115.312V37.803ZM115.392 33.943H114.592V33.243H115.392V33.943ZM116.022 35.143H115.222V34.433H116.022V35.143ZM114.752 35.143H113.952V34.433H114.752V35.143ZM119.842 39.123C119.842 39.5096 119.779 39.8596 119.652 40.173C119.532 40.493 119.365 40.7663 119.152 40.993C118.939 41.2196 118.685 41.393 118.392 41.513C118.105 41.6396 117.792 41.703 117.452 41.703H116.862L116.812 41.023H117.302C117.635 41.023 117.922 40.9696 118.162 40.863C118.402 40.7563 118.599 40.613 118.752 40.433C118.905 40.2596 119.019 40.0596 119.092 39.833C119.165 39.6063 119.202 39.3696 119.202 39.123V36.423H119.842V39.123ZM119.882 35.143H119.042V34.413H119.882V35.143ZM121.868 41.023C122.162 41.023 122.418 40.9763 122.638 40.883C122.865 40.7896 123.055 40.663 123.208 40.503C123.362 40.343 123.478 40.1563 123.558 39.943C123.638 39.7363 123.685 39.5163 123.698 39.283H122.698C122.358 39.283 122.078 39.2463 121.858 39.173C121.638 39.0996 121.465 38.993 121.338 38.853C121.212 38.713 121.122 38.5463 121.068 38.353C121.022 38.153 120.998 37.9296 120.998 37.683C120.998 37.4296 121.035 37.1896 121.108 36.963C121.182 36.7363 121.288 36.5363 121.428 36.363C121.568 36.1896 121.742 36.053 121.948 35.953C122.162 35.8463 122.405 35.793 122.678 35.793C122.898 35.793 123.108 35.8296 123.308 35.903C123.508 35.9763 123.685 36.093 123.838 36.253C123.992 36.4063 124.112 36.6096 124.198 36.863C124.292 37.1096 124.338 37.4096 124.338 37.763V38.593H125.298C125.378 38.593 125.432 38.623 125.458 38.683C125.492 38.7363 125.508 38.8196 125.508 38.933C125.508 39.053 125.492 39.143 125.458 39.203C125.432 39.2563 125.378 39.283 125.298 39.283H124.318C124.305 39.6096 124.238 39.9196 124.118 40.213C124.005 40.5063 123.845 40.763 123.638 40.983C123.432 41.203 123.185 41.3763 122.898 41.503C122.612 41.6363 122.288 41.703 121.928 41.703H120.868L120.808 41.023H121.868ZM121.618 37.643C121.618 37.8096 121.635 37.953 121.668 38.073C121.708 38.193 121.772 38.293 121.858 38.373C121.952 38.4463 122.075 38.503 122.228 38.543C122.382 38.5763 122.575 38.593 122.808 38.593H123.708V37.843C123.708 37.3496 123.612 36.9963 123.418 36.783C123.225 36.5696 122.958 36.463 122.618 36.463C122.298 36.463 122.052 36.5696 121.878 36.783C121.705 36.9963 121.618 37.283 121.618 37.643ZM125.461 38.593C125.721 38.593 125.917 38.5296 126.051 38.403C126.184 38.2763 126.251 38.1063 126.251 37.893V37.513C126.251 36.933 126.397 36.4796 126.691 36.153C126.991 35.8263 127.404 35.663 127.931 35.663C128.204 35.663 128.444 35.7063 128.651 35.793C128.857 35.8796 129.027 36.003 129.161 36.163C129.301 36.323 129.404 36.513 129.471 36.733C129.537 36.953 129.571 37.1963 129.571 37.463C129.571 38.0363 129.421 38.483 129.121 38.803C128.821 39.123 128.411 39.283 127.891 39.283C127.624 39.283 127.367 39.233 127.121 39.133C126.874 39.0263 126.681 38.8396 126.541 38.573C126.481 38.7263 126.407 38.8496 126.321 38.943C126.234 39.0363 126.144 39.1096 126.051 39.163C125.957 39.2096 125.857 39.243 125.751 39.263C125.651 39.2763 125.554 39.283 125.461 39.283H125.301C125.214 39.283 125.157 39.2563 125.131 39.203C125.097 39.1496 125.081 39.0663 125.081 38.953C125.081 38.833 125.097 38.743 125.131 38.683C125.157 38.623 125.214 38.593 125.301 38.593H125.461ZM128.931 37.523C128.931 37.1763 128.854 36.8963 128.701 36.683C128.547 36.463 128.284 36.353 127.911 36.353C127.217 36.353 126.871 36.7563 126.871 37.563C126.871 37.903 126.964 38.1596 127.151 38.333C127.344 38.5063 127.591 38.593 127.891 38.593C128.231 38.593 128.487 38.4996 128.661 38.313C128.841 38.1263 128.931 37.863 128.931 37.523ZM130.825 34.453H131.475V39.283H130.825V34.453ZM130.665 33.363C130.538 33.363 130.435 33.3763 130.355 33.403C130.281 33.423 130.218 33.4996 130.165 33.633L129.955 34.083L129.525 33.893L129.785 33.313C129.845 33.193 129.901 33.0963 129.955 33.023C130.008 32.9496 130.068 32.893 130.135 32.853C130.195 32.813 130.265 32.7863 130.345 32.773C130.431 32.7596 130.531 32.753 130.645 32.753H132.485L132.455 33.363H130.665ZM137.759 39.283C137.299 39.283 136.929 39.163 136.649 38.923C136.369 38.6763 136.229 38.3196 136.229 37.853V37.243C136.229 37.0296 136.256 36.8463 136.309 36.693C136.362 36.5396 136.459 36.3996 136.599 36.273H136.179C135.759 36.273 135.442 36.3796 135.229 36.593C135.016 36.7996 134.909 37.0696 134.909 37.403V41.703H134.269V37.383C134.269 37.1496 134.309 36.9263 134.389 36.713C134.476 36.4996 134.599 36.3096 134.759 36.143C134.919 35.9763 135.119 35.8463 135.359 35.753C135.599 35.653 135.879 35.603 136.199 35.603H138.009C138.276 35.603 138.499 35.643 138.679 35.723C138.866 35.7963 139.016 35.8963 139.129 36.023C139.242 36.1496 139.322 36.2963 139.369 36.463C139.422 36.623 139.449 36.7863 139.449 36.953V37.833C139.449 38.0863 139.406 38.3063 139.319 38.493C139.232 38.673 139.112 38.823 138.959 38.943C138.812 39.0563 138.636 39.143 138.429 39.203C138.222 39.2563 137.999 39.283 137.759 39.283ZM137.829 38.593C138.136 38.593 138.376 38.5263 138.549 38.393C138.729 38.253 138.819 38.043 138.819 37.763V37.103C138.819 36.883 138.756 36.693 138.629 36.533C138.502 36.373 138.299 36.293 138.019 36.293H137.659C137.379 36.293 137.176 36.3763 137.049 36.543C136.922 36.703 136.859 36.903 136.859 37.143V37.733C136.859 38.013 136.939 38.2263 137.099 38.373C137.266 38.5196 137.509 38.593 137.829 38.593ZM141.668 39.123C141.668 39.5096 141.608 39.8596 141.488 40.173C141.368 40.493 141.201 40.7663 140.988 40.993C140.774 41.2196 140.524 41.393 140.238 41.513C139.951 41.6396 139.638 41.703 139.298 41.703H138.708L138.658 41.023H139.148C139.481 41.023 139.768 40.9696 140.008 40.863C140.248 40.7563 140.444 40.613 140.598 40.433C140.751 40.2596 140.864 40.0596 140.938 39.833C141.011 39.6063 141.048 39.3696 141.048 39.123V36.423H141.688V37.833C141.688 38.0663 141.764 38.253 141.918 38.393C142.078 38.5263 142.284 38.593 142.538 38.593H142.648C142.794 38.593 142.868 38.7063 142.868 38.933C142.868 39.1663 142.794 39.283 142.648 39.283H142.538C142.378 39.283 142.218 39.253 142.058 39.193C141.904 39.133 141.774 39.0296 141.668 38.883V39.123ZM144.565 38.593C144.245 38.4063 143.991 38.183 143.805 37.923C143.618 37.6563 143.525 37.3596 143.525 37.033C143.525 36.813 143.565 36.5996 143.645 36.393C143.731 36.1863 143.851 36.0063 144.005 35.853C144.158 35.693 144.345 35.5663 144.565 35.473C144.791 35.373 145.041 35.323 145.315 35.323C145.588 35.323 145.828 35.373 146.035 35.473C146.241 35.5663 146.411 35.693 146.545 35.853C146.685 36.0063 146.788 36.183 146.855 36.383C146.928 36.5763 146.965 36.773 146.965 36.973C146.965 37.633 146.651 38.173 146.025 38.593H147.855C148.001 38.593 148.075 38.7063 148.075 38.933C148.075 39.1663 148.001 39.283 147.855 39.283H146.745C146.438 39.283 146.165 39.2763 145.925 39.263C145.685 39.243 145.498 39.1996 145.365 39.133C145.271 39.173 145.155 39.203 145.015 39.223C144.881 39.243 144.741 39.2596 144.595 39.273C144.455 39.2796 144.315 39.283 144.175 39.283C144.041 39.283 143.928 39.283 143.835 39.283H142.645C142.558 39.283 142.501 39.2563 142.475 39.203C142.441 39.1496 142.425 39.0663 142.425 38.953C142.425 38.833 142.441 38.743 142.475 38.683C142.501 38.623 142.558 38.593 142.645 38.593H144.565ZM145.245 36.013C144.911 36.013 144.648 36.1196 144.455 36.333C144.261 36.5463 144.165 36.8063 144.165 37.113C144.165 37.2863 144.201 37.443 144.275 37.583C144.348 37.723 144.438 37.8496 144.545 37.963C144.658 38.0763 144.781 38.1763 144.915 38.263C145.055 38.343 145.191 38.413 145.325 38.473C145.431 38.413 145.541 38.343 145.655 38.263C145.775 38.1763 145.885 38.0796 145.985 37.973C146.085 37.8596 146.168 37.733 146.235 37.593C146.301 37.453 146.335 37.303 146.335 37.143C146.335 36.803 146.238 36.5296 146.045 36.323C145.851 36.1163 145.585 36.013 145.245 36.013ZM145.745 34.353H144.905V33.623H145.745V34.353ZM148.619 38.593C148.899 38.593 149.113 38.523 149.259 38.383C149.406 38.243 149.479 38.0496 149.479 37.803V36.423H150.129V37.803C150.129 37.9496 150.153 38.073 150.199 38.173C150.253 38.273 150.319 38.3563 150.399 38.423C150.479 38.483 150.569 38.5263 150.669 38.553C150.769 38.5796 150.873 38.593 150.979 38.593H151.279C151.433 38.593 151.509 38.7063 151.509 38.933C151.509 39.1663 151.433 39.283 151.279 39.283H150.959C150.719 39.283 150.496 39.2396 150.289 39.153C150.083 39.0596 149.913 38.8863 149.779 38.633C149.626 38.8863 149.449 39.0596 149.249 39.153C149.056 39.2396 148.846 39.283 148.619 39.283H147.859C147.773 39.283 147.716 39.2563 147.689 39.203C147.656 39.1496 147.639 39.0663 147.639 38.953C147.639 38.833 147.656 38.743 147.689 38.683C147.716 38.623 147.773 38.593 147.859 38.593H148.619ZM150.729 35.143H149.929V34.433H150.729V35.143ZM149.459 35.143H148.659V34.433H149.459V35.143ZM151.537 38.593C151.817 38.593 152.027 38.523 152.167 38.383C152.314 38.243 152.387 38.0496 152.387 37.803V33.083H153.037V37.803C153.037 37.9496 153.061 38.073 153.107 38.173C153.161 38.273 153.227 38.3563 153.307 38.423C153.387 38.483 153.477 38.5263 153.577 38.553C153.677 38.5796 153.781 38.593 153.887 38.593H154.027C154.114 38.593 154.171 38.623 154.197 38.683C154.231 38.7363 154.247 38.8196 154.247 38.933C154.247 39.053 154.231 39.143 154.197 39.203C154.171 39.2563 154.114 39.283 154.027 39.283H153.867C153.627 39.283 153.404 39.2396 153.197 39.153C152.991 39.0596 152.821 38.8863 152.687 38.633C152.541 38.8863 152.364 39.0596 152.157 39.153C151.957 39.2396 151.751 39.283 151.537 39.283H151.277C151.191 39.283 151.134 39.2563 151.107 39.203C151.074 39.1496 151.057 39.0663 151.057 38.953C151.057 38.833 151.074 38.743 151.107 38.683C151.134 38.623 151.191 38.593 151.277 38.593H151.537ZM154.931 38.593C155.191 38.593 155.398 38.523 155.551 38.383C155.711 38.243 155.791 38.0496 155.791 37.803V36.423H156.441V37.803C156.441 38.2763 156.308 38.643 156.041 38.903C155.781 39.1563 155.425 39.283 154.971 39.283H154.031C153.945 39.283 153.888 39.2563 153.861 39.203C153.828 39.1496 153.811 39.0663 153.811 38.953C153.811 38.833 153.828 38.743 153.861 38.683C153.888 38.623 153.945 38.593 154.031 38.593H154.931ZM155.581 42.353H154.781V41.643H155.581V42.353ZM156.211 41.153H155.411V40.443H156.211V41.153ZM154.941 41.153H154.141V40.443H154.941V41.153Z" fill="white"/>
</svg>
