<svg width="24" height="24" viewBox="0 0 24 24" fill="none" xmlns="http://www.w3.org/2000/svg">
                                <path opacity="0.4" d="M16.19 2H7.81C4.17 2 2 4.17 2 7.81V16.18C2 19.83 4.17 22 7.81 22H16.18C19.82 22 21.99 19.83 21.99 16.19V7.81C22 4.17 19.83 2 16.19 2Z" fill="#ff3737"></path>
                                <path d="M13.0604 12.0001L15.3604 9.70011C15.6504 9.41011 15.6504 8.93011 15.3604 8.64011C15.0704 8.35011 14.5904 8.35011 14.3004 8.64011L12.0004 10.9401L9.70035 8.64011C9.41035 8.35011 8.93035 8.35011 8.64035 8.64011C8.35035 8.93011 8.35035 9.41011 8.64035 9.70011L10.9404 12.0001L8.64035 14.3001C8.35035 14.5901 8.35035 15.0701 8.64035 15.3601C8.79035 15.5101 8.98035 15.5801 9.17035 15.5801C9.36035 15.5801 9.55035 15.5101 9.70035 15.3601L12.0004 13.0601L14.3004 15.3601C14.4504 15.5101 14.6404 15.5801 14.8304 15.5801C15.0204 15.5801 15.2104 15.5101 15.3604 15.3601C15.6504 15.0701 15.6504 14.5901 15.3604 14.3001L13.0604 12.0001Z" fill="#ff3737"></path>
                            </svg>