<svg width="40" height="40" viewBox="0 0 40 40" fill="none" xmlns="http://www.w3.org/2000/svg">
<rect x="40" width="39.6273" height="40" rx="15" transform="rotate(90 40 0)" fill="#fff"/>
<path d="M20.0511 22.7776C19.9139 22.7776 19.778 22.7509 19.6512 22.6988C19.5244 22.6468 19.4092 22.5706 19.3121 22.4745L15.4121 18.6108C15.2162 18.4167 15.1062 18.1536 15.1062 17.8792C15.1062 17.6047 15.2162 17.3416 15.4121 17.1475C15.608 16.9535 15.8736 16.8445 16.1506 16.8445C16.4276 16.8445 16.6932 16.9535 16.8891 17.1475L20.0531 19.5252L23.2171 17.1475C23.3141 17.0515 23.4292 16.9752 23.5559 16.9232C23.6827 16.8712 23.8184 16.8445 23.9556 16.8445C24.0927 16.8445 24.2286 16.8712 24.3553 16.9232C24.482 16.9752 24.5971 17.0515 24.6941 17.1475C24.7911 17.2436 24.868 17.3577 24.9205 17.4832C24.973 17.6088 25 17.7433 25 17.8792C25 18.015 24.973 18.1496 24.9205 18.2751C24.868 18.4007 24.7911 18.5147 24.6941 18.6108L20.7941 22.4745C20.6966 22.5711 20.5807 22.6476 20.4532 22.6997C20.3257 22.7517 20.189 22.7782 20.0511 22.7776Z" fill="#0F0B03"/>
</svg>
