<svg width="13" height="10" viewBox="0 0 13 10" fill="none" xmlns="http://www.w3.org/2000/svg">
<path d="M10.9409 0.699951C10.7439 0.699862 10.5488 0.738586 10.3668 0.81391C10.1847 0.889235 10.0193 0.999684 9.87993 1.13895L8.37993 2.63895L4.94093 6.07895L3.00093 4.13895C2.86256 3.99569 2.69704 3.88141 2.51404 3.8028C2.33103 3.72419 2.1342 3.68281 1.93503 3.68108C1.73586 3.67935 1.53834 3.7173 1.354 3.79272C1.16965 3.86814 1.00218 3.97952 0.861337 4.12036C0.720498 4.2612 0.609118 4.42868 0.533697 4.61302C0.458276 4.79736 0.420323 4.99488 0.422054 5.19405C0.423784 5.39322 0.465164 5.59005 0.543777 5.77306C0.622391 5.95606 0.736664 6.12158 0.879929 6.25995L3.87993 9.25995C4.16122 9.54116 4.54268 9.69913 4.94043 9.69913C5.33818 9.69913 5.71964 9.54116 6.00093 9.25995L10.5009 4.75995L12.0009 3.25995C12.2104 3.05018 12.3531 2.78302 12.4109 2.49222C12.4686 2.20143 12.4389 1.90003 12.3255 1.6261C12.2121 1.35218 12.02 1.11801 11.7736 0.953167C11.5272 0.788327 11.2374 0.700212 10.9409 0.699951Z" fill="white"/>
</svg>
