<svg width="48" height="42" viewBox="0 0 48 42" fill="none" xmlns="http://www.w3.org/2000/svg">
<path d="M46.4645 27.6986L38.6863 35.4768C34.9356 39.2275 29.8485 41.3347 24.5442 41.3347C19.2398 41.3347 14.1527 39.2275 10.402 35.4768L1.91674 26.9915C0.979057 26.0538 0.452274 24.7821 0.452274 23.456C0.452274 22.1299 0.979057 20.8581 1.91674 19.9204L20.3015 1.53567C21.2392 0.597987 22.511 0.0712024 23.837 0.0712033C25.1631 0.0712041 26.4349 0.597986 27.3726 1.53567L46.4645 20.6276C47.4021 21.5652 47.9289 22.837 47.9289 24.1631C47.9289 25.4892 47.4021 26.7609 46.4645 27.6986V27.6986Z" fill="white"/>
</svg>
